<svg width="64" height="64" viewBox="0 0 64 64" xmlns="http://www.w3.org/2000/svg">
  <defs>
    <linearGradient id="analyticsGradient" x1="0%" y1="0%" x2="100%" y2="100%">
      <stop offset="0%" style="stop-color:#4facfe;stop-opacity:1" />
      <stop offset="100%" style="stop-color:#00f2fe;stop-opacity:1" />
    </linearGradient>
  </defs>
  
  <!-- Background circle -->
  <circle cx="32" cy="32" r="30" fill="url(#analyticsGradient)" stroke="rgba(255,255,255,0.3)" stroke-width="2"/>
  
  <!-- Chart bars -->
  <rect x="20" y="40" width="4" height="12" fill="white" rx="1"/>
  <rect x="26" y="36" width="4" height="16" fill="white" rx="1"/>
  <rect x="32" y="32" width="4" height="20" fill="white" rx="1"/>
  <rect x="38" y="28" width="4" height="24" fill="white" rx="1"/>
  <rect x="44" y="34" width="4" height="18" fill="white" rx="1"/>
  
  <!-- Chart line -->
  <path d="M18 44 L26 40 L32 36 L38 32 L44 38 L50 34" stroke="rgba(255,255,255,0.8)" stroke-width="2" fill="none"/>
  
  <!-- Grid lines -->
  <line x1="16" y1="48" x2="52" y2="48" stroke="rgba(255,255,255,0.3)" stroke-width="1"/>
  <line x1="16" y1="40" x2="52" y2="40" stroke="rgba(255,255,255,0.3)" stroke-width="1"/>
  <line x1="16" y1="32" x2="52" y2="32" stroke="rgba(255,255,255,0.3)" stroke-width="1"/>
  <line x1="16" y1="24" x2="52" y2="24" stroke="rgba(255,255,255,0.3)" stroke-width="1"/>
</svg> 