<svg width="800" height="400" viewBox="0 0 800 400" xmlns="http://www.w3.org/2000/svg">
  <defs>
    <linearGradient id="bgGradient" x1="0%" y1="0%" x2="100%" y2="100%">
      <stop offset="0%" style="stop-color:#667eea;stop-opacity:1" />
      <stop offset="100%" style="stop-color:#764ba2;stop-opacity:1" />
    </linearGradient>
    <linearGradient id="cardGradient" x1="0%" y1="0%" x2="100%" y2="100%">
      <stop offset="0%" style="stop-color:rgba(255,255,255,0.1);stop-opacity:1" />
      <stop offset="100%" style="stop-color:rgba(255,255,255,0.05);stop-opacity:1" />
    </linearGradient>
    <filter id="blur" x="-50%" y="-50%" width="200%" height="200%">
      <feGaussianBlur in="SourceGraphic" stdDeviation="10"/>
    </filter>
  </defs>
  
  <!-- Background -->
  <rect width="800" height="400" fill="url(#bgGradient)"/>
  
  <!-- Floating shapes -->
  <circle cx="100" cy="100" r="30" fill="rgba(255,255,255,0.1)" opacity="0.6"/>
  <circle cx="700" cy="80" r="40" fill="rgba(255,255,255,0.1)" opacity="0.4"/>
  <circle cx="650" cy="320" r="25" fill="rgba(255,255,255,0.1)" opacity="0.5"/>
  <circle cx="150" cy="350" r="35" fill="rgba(255,255,255,0.1)" opacity="0.3"/>
  
  <!-- Dashboard cards -->
  <rect x="50" y="80" width="200" height="120" rx="15" fill="url(#cardGradient)" stroke="rgba(255,255,255,0.2)" stroke-width="1"/>
  <rect x="280" y="80" width="200" height="120" rx="15" fill="url(#cardGradient)" stroke="rgba(255,255,255,0.2)" stroke-width="1"/>
  <rect x="510" y="80" width="200" height="120" rx="15" fill="url(#cardGradient)" stroke="rgba(255,255,255,0.2)" stroke-width="1"/>
  
  <!-- Card icons -->
  <circle cx="100" cy="120" r="20" fill="rgba(255,255,255,0.2)"/>
  <text x="100" y="128" text-anchor="middle" fill="white" font-family="Arial" font-size="16" font-weight="bold">👥</text>
  
  <circle cx="330" cy="120" r="20" fill="rgba(255,255,255,0.2)"/>
  <text x="330" y="128" text-anchor="middle" fill="white" font-family="Arial" font-size="16" font-weight="bold">📊</text>
  
  <circle cx="560" cy="120" r="20" fill="rgba(255,255,255,0.2)"/>
  <text x="560" y="128" text-anchor="middle" fill="white" font-family="Arial" font-size="16" font-weight="bold">⚡</text>
  
  <!-- Card titles -->
  <text x="150" y="160" fill="white" font-family="Arial" font-size="14" font-weight="bold">Total Students</text>
  <text x="380" y="160" fill="white" font-family="Arial" font-size="14" font-weight="bold">Analytics</text>
  <text x="610" y="160" fill="white" font-family="Arial" font-size="14" font-weight="bold">Performance</text>
  
  <!-- Card values -->
  <text x="150" y="180" fill="white" font-family="Arial" font-size="24" font-weight="bold">1,247</text>
  <text x="380" y="180" fill="white" font-family="Arial" font-size="24" font-weight="bold">98.5%</text>
  <text x="610" y="180" fill="white" font-family="Arial" font-size="24" font-weight="bold">A+</text>
  
  <!-- Main title -->
  <text x="400" y="50" text-anchor="middle" fill="white" font-family="Arial" font-size="32" font-weight="bold">Student Management Dashboard</text>
  
  <!-- Decorative elements -->
  <rect x="50" y="250" width="700" height="120" rx="15" fill="url(#cardGradient)" stroke="rgba(255,255,255,0.2)" stroke-width="1"/>
  
  <!-- Chart bars -->
  <rect x="80" y="320" width="30" height="40" fill="rgba(255,255,255,0.3)" rx="3"/>
  <rect x="130" y="310" width="30" height="50" fill="rgba(255,255,255,0.3)" rx="3"/>
  <rect x="180" y="315" width="30" height="45" fill="rgba(255,255,255,0.3)" rx="3"/>
  <rect x="230" y="305" width="30" height="55" fill="rgba(255,255,255,0.3)" rx="3"/>
  <rect x="280" y="320" width="30" height="40" fill="rgba(255,255,255,0.3)" rx="3"/>
  <rect x="330" y="308" width="30" height="52" fill="rgba(255,255,255,0.3)" rx="3"/>
  <rect x="380" y="312" width="30" height="48" fill="rgba(255,255,255,0.3)" rx="3"/>
  
  <!-- Chart title -->
  <text x="400" y="280" text-anchor="middle" fill="white" font-family="Arial" font-size="18" font-weight="bold">Student Performance Overview</text>
  
  <!-- Blurred background elements -->
  <circle cx="400" cy="200" r="100" fill="rgba(255,255,255,0.05)" filter="url(#blur)"/>
</svg> 