<svg width="64" height="64" viewBox="0 0 64 64" xmlns="http://www.w3.org/2000/svg">
  <defs>
    <linearGradient id="performanceGradient" x1="0%" y1="0%" x2="100%" y2="100%">
      <stop offset="0%" style="stop-color:#fa709a;stop-opacity:1" />
      <stop offset="100%" style="stop-color:#fee140;stop-opacity:1" />
    </linearGradient>
  </defs>
  
  <!-- Background circle -->
  <circle cx="32" cy="32" r="30" fill="url(#performanceGradient)" stroke="rgba(255,255,255,0.3)" stroke-width="2"/>
  
  <!-- Trophy base -->
  <rect x="28" y="40" width="8" height="4" fill="white" rx="2"/>
  
  <!-- Trophy body -->
  <path d="M26 40 L38 40 L36 32 L30 32 Z" fill="white"/>
  
  <!-- Trophy handles -->
  <path d="M26 36 Q24 34 26 32" stroke="white" stroke-width="2" fill="none"/>
  <path d="M38 36 Q40 34 38 32" stroke="white" stroke-width="2" fill="none"/>
  
  <!-- Trophy top -->
  <rect x="30" y="28" width="4" height="4" fill="white" rx="1"/>
  
  <!-- Stars -->
  <polygon points="32,20 34,24 38,24 35,27 36,31 32,29 28,31 29,27 26,24 30,24" fill="white"/>
  <polygon points="20,32 22,34 24,34 23,36 24,38 20,36 16,38 17,36 16,34 18,34" fill="white"/>
  <polygon points="44,32 46,34 48,34 47,36 48,38 44,36 40,38 41,36 40,34 42,34" fill="white"/>
</svg> 